PathFileType	4	(X/Y/Z)	C:\Users\Basilio\Documents\Thesis Gigler\squatting_fais\c3dfiles\041\SLS_pre_back1\markers_experimental.trc
DataRate	CameraRate	NumFrames	NumMarkers	Units	OrigDataRate	OrigDataStartFrame	OrigNumFrames
200.000000	200.000000	4	62	mm	200.000000	1303	1738
Frame#	Time	FHD			LBHD			RBHD			C7			T10			CLAV			LSHO			LUUPA			LMUPA			LDUPA			LLEP			LMEP			LRAD			LUL			LRFIN			RSHO			RUPA1			RMUPA			RDUPA			RLEP			RMEP			RRAD			RUL			RUFIN			LASI			RASI			USACR			LSACR			RSACR			LTHI1			LTHI2			LTHI3			LTHI4			LLFC			LMFC			LTIB1			LTIB2			LTIB3			LTIB4			LLMAL			LMMAL			LHEE			LMT1			LMT2			LMT5			RTHI			RTHI2			RTHI3			RTHI4			RLFC			RMFC			RTIB1			RTIB2			RTIB3			RTIB4			RLMAL			RMMAL			RHEE			RMT1			RMT2			RMT5			*61			
		X1	Y1	Z1	X2	Y2	Z2	X3	Y3	Z3	X4	Y4	Z4	X5	Y5	Z5	X6	Y6	Z6	X7	Y7	Z7	X8	Y8	Z8	X9	Y9	Z9	X10	Y10	Z10	X11	Y11	Z11	X12	Y12	Z12	X13	Y13	Z13	X14	Y14	Z14	X15	Y15	Z15	X16	Y16	Z16	X17	Y17	Z17	X18	Y18	Z18	X19	Y19	Z19	X20	Y20	Z20	X21	Y21	Z21	X22	Y22	Z22	X23	Y23	Z23	X24	Y24	Z24	X25	Y25	Z25	X26	Y26	Z26	X27	Y27	Z27	X28	Y28	Z28	X29	Y29	Z29	X30	Y30	Z30	X31	Y31	Z31	X32	Y32	Z32	X33	Y33	Z33	X34	Y34	Z34	X35	Y35	Z35	X36	Y36	Z36	X37	Y37	Z37	X38	Y38	Z38	X39	Y39	Z39	X40	Y40	Z40	X41	Y41	Z41	X42	Y42	Z42	X43	Y43	Z43	X44	Y44	Z44	X45	Y45	Z45	X46	Y46	Z46	X47	Y47	Z47	X48	Y48	Z48	X49	Y49	Z49	X50	Y50	Z50	X51	Y51	Z51	X52	Y52	Z52	X53	Y53	Z53	X54	Y54	Z54	X55	Y55	Z55	X56	Y56	Z56	X57	Y57	Z57	X58	Y58	Z58	X59	Y59	Z59	X60	Y60	Z60	X61	Y61	Z61	X62	Y62	Z62	

1304	6.515000000000001	-79.94153594970705	1687.528076171875	-1160.403198242188	-255.2418060302735	1608.590942382813	-1228.075073242188	-233.8655853271485	1624.127807617188	-1076.478393554688	-294.7599487304688	1494.340087890625	-1145.446533203125	-402.8640747070314	1209.3984375	-1084.410400390625	-145.6052856445313	1405.446166992188	-1149.782592773438	-228.2207641601563	1478.716430664063	-1285.69287109375	-147.9147186279297	1429.798217773438	-1423.954833984375	-100.9582672119141	1433.77685546875	-1411.328857421875	-97.83501434326175	1414.660522460938	-1469.38330078125	-55.00569152832033	1402.457763671875	-1493.744018554688	-32.63092803955079	1321.977416992188	-1465.21435546875	215.9585266113282	1385.986083984375	-1436.156127929688	220.4955749511719	1387.467651367188	-1510.988891601563	282.6416015625001	1426.9345703125	-1433.563720703125	-191.8654479980469	1505.8837890625	-1026.57470703125	-64.93318176269533	1468.769897460938	-889.649108886719	-37.92179870605469	1488.306030273438	-927.9779052734377	5.196688652038575	1476.391845703125	-888.8638916015627	51.31193923950197	1473.092041015625	-884.3895263671877	55.16170883178712	1386.1220703125	-900.239685058594	295.4966735839844	1412.984130859375	-988.7385864257815	310.4396667480469	1438.3984375	-918.9980468750002	379.0999145507813	1417.752319335938	-1008.980163574219	-276.8160705566407	988.2134399414065	-1165.214721679688	-300.3430480957032	987.0713500976565	-941.7562255859377	-444.8638305664064	1100.6669921875	-1071.101928710938	-462.966766357422	1077.231567382813	-1099.313232421875	-471.0723571777345	1078.51318359375	-1045.0009765625	-352.3186645507813	790.7180175781252	-1231.398681640625	-294.0017700195313	729.8157348632814	-1221.9892578125	-251.0084228515626	747.0103149414064	-1210.688110351563	-303.9295043945313	670.4366455078126	-1206.358276367188	-237.7194976806641	512.9101562500001	-1175.635498046875	-235.9910278320313	504.8265380859376	-1059.011962890625	-248.926742553711	326.5751647949219	-1103.73779296875	-302.0628356933594	290.7631835937501	-1164.678466796875	-267.4582214355469	279.7164611816407	-1136.821166992188	-293.2247619628907	209.9540557861329	-1097.113159179688	-372.0250244140626	128.9713592529297	-1135.325439453125	-341.0909729003907	138.6985015869141	-1050.125854492188	-443.684539794922	112.828727722168	-1095.319091796875	-241.3060150146485	61.88869857788087	-1049.873168945313	-230.2975311279297	55.55221557617189	-1094.084716796875	-272.2691650390626	40.5207748413086	-1151.984497070313	-439.376678466797	736.0911254882814	-877.6279907226565	-402.2449951171876	681.7117919921876	-869.2934570312502	-369.4516601562501	682.3778076171876	-869.4394531250002	-429.9479980468751	602.2160034179689	-884.2559814453127	-448.9181213378907	507.1271972656251	-893.9114379882815	-422.2249450683595	475.8112182617189	-1001.612182617188	-572.9685058593751	410.831268310547	-933.077575683594	-673.3892211914064	461.8670043945314	-953.6594848632815	-658.7903442382814	417.602752685547	-948.4655761718752	-686.6510620117189	377.4780883789063	-983.5075683593752	-815.8409423828127	386.8162841796876	-1006.106506347656	-763.4318237304689	366.4128112792969	-1071.490844726563	-865.0879516601565	412.8037414550782	-1074.4580078125	-752.9746704101564	228.5247039794922	-1041.454956054688	-763.6191406250001	227.8163604736329	-989.4597167968752	-819.1600341796877	252.4122467041016	-961.5706176757815	-4216.996582031251	853.1489868164065	-3944.790283203126	
1305	6.52	-80.47506713867189	1689.515258789063	-1160.080322265625	-256.1810913085938	1610.71728515625	-1227.778686523438	-234.4555969238282	1626.338745117188	-1076.301513671875	-295.4792480468751	1496.238525390625	-1145.34814453125	-402.3340454101564	1210.609375	-1084.539428710938	-146.6309204101563	1407.37109375	-1149.622924804688	-228.6404418945313	1480.265991210938	-1286.067016601563	-149.1503448486328	1430.1005859375	-1424.6123046875	-102.1216888427735	1433.96533203125	-1412.34814453125	-99.472526550293	1414.548950195313	-1470.264404296875	-56.84006881713869	1401.952392578125	-1494.708251953125	-34.99066543579102	1321.709350585938	-1465.6669921875	214.0457916259766	1384.17724609375	-1436.04638671875	218.536849975586	1385.239868164063	-1511.2021484375	280.8074035644532	1424.480102539063	-1433.702392578125	-192.3037567138672	1507.457275390625	-1025.938232421875	-66.3778533935547	1469.222778320313	-888.525817871094	-38.70158004760743	1488.690063476563	-926.4624023437502	3.983135461807252	1476.319458007813	-887.4302978515627	49.63044738769533	1472.843017578125	-882.330993652344	53.42232513427736	1385.765625	-898.604919433594	293.5176696777344	1411.614501953125	-988.213806152344	309.1735534667969	1436.95556640625	-918.4156494140627	376.9453125000001	1416.103759765625	-1008.747497558594	-275.4529113769532	989.198913574219	-1165.002075195313	-299.1714782714844	988.6903076171877	-941.834411621094	-443.9241333007814	1101.88671875	-1071.301879882813	-461.8990173339845	1078.393432617188	-1099.484252929688	-470.0691833496095	1079.709716796875	-1045.133056640625	-351.7953491210938	791.9180908203127	-1231.371459960938	-293.9145812988282	730.6892700195314	-1221.869506835938	-250.6658325195313	747.4691772460939	-1210.666137695313	-304.1422729492188	671.3112792968751	-1206.2919921875	-238.6880187988282	513.2974243164064	-1175.543579101563	-236.8422546386719	505.2944641113282	-1058.92626953125	-249.4038848876954	326.8726501464844	-1103.712890625	-302.9760131835938	291.0901184082032	-1164.7900390625	-267.6787719726563	279.8992919921876	-1136.804077148438	-293.4598693847657	210.2361145019532	-1097.231567382813	-372.0430297851563	129.0189208984375	-1135.274047851563	-341.1095886230469	138.70361328125	-1050.091552734375	-443.6257629394532	112.8305358886719	-1095.350463867188	-241.2854003906251	61.87060546875001	-1049.887084960938	-230.3628845214844	55.46348190307619	-1094.362426757813	-272.2381896972657	40.4933204650879	-1151.941162109375	-438.0148925781251	737.5540161132814	-877.5080566406252	-401.2097473144532	683.2568359375001	-869.0718383789065	-368.1826477050782	683.8853149414064	-869.6704711914065	-428.6068420410157	603.9440917968751	-884.1170654296877	-447.6229248046876	508.7147827148439	-893.6680908203127	-421.058807373047	477.1407165527345	-1001.1640625	-571.5925292968751	411.9398498535157	-932.437927246094	-672.1944580078126	462.9343872070314	-953.214782714844	-657.5951538085939	418.541961669922	-947.943054199219	-685.3809814453126	378.3830871582032	-982.9467773437502	-814.705017089844	387.4371643066407	-1005.437744140625	-762.3533325195314	366.9364013671876	-1070.72509765625	-863.9695434570315	413.313690185547	-1073.66943359375	-751.5178833007814	229.4279937744141	-1040.490478515625	-762.0357055664064	228.6393127441407	-988.3995361328127	-817.5232543945315	253.2473907470704	-960.6441650390627	-4216.800781250001	853.0683593750002	-3944.722167968751	
1306	6.525	-81.29760742187501	1692.031494140625	-1159.885498046875	-256.8881835937501	1613.15283203125	-1227.591430664063	-235.1464385986329	1628.385375976563	-1076.187133789063	-296.0316467285157	1497.995361328125	-1145.29638671875	-401.9126586914064	1211.7900390625	-1084.74755859375	-147.2841491699219	1409.570556640625	-1149.343017578125	-229.2290191650391	1481.829711914063	-1286.369018554688	-150.5949401855469	1430.4521484375	-1425.287353515625	-103.2579574584961	1434.078247070313	-1413.201782226563	-101.0907135009766	1414.33203125	-1471.063842773438	-58.5336380004883	1401.502563476563	-1495.7177734375	-37.21194458007813	1321.129028320313	-1466.813354492188	211.8006744384766	1382.015869140625	-1436.790771484375	216.6397094726563	1382.9091796875	-1511.372924804688	279.1739807128907	1421.980590820313	-1433.94287109375	-193.1842803955079	1509.21044921875	-1025.151123046875	-68.03163909912111	1469.63916015625	-887.2108154296877	-39.89733886718751	1488.93310546875	-924.9816894531252	2.565962314605713	1476.3447265625	-885.748962402344	48.66162872314455	1472.581909179688	-880.8339843750002	51.56306838989259	1385.481567382813	-897.0027465820315	290.6745605468751	1410.317504882813	-987.4187622070315	307.3726501464844	1435.155395507813	-917.579772949219	374.7982482910157	1414.183837890625	-1008.522338867188	-274.4785766601563	990.8374633789065	-1164.916748046875	-298.0269165039063	990.2210083007815	-941.814147949219	-443.0481567382814	1103.171020507813	-1071.406616210938	-460.8936767578126	1079.60107421875	-1099.567016601563	-469.2549133300782	1080.916137695313	-1045.427734375	-351.2743835449219	792.8968505859377	-1231.39013671875	-293.7999877929688	731.4772338867189	-1221.787109375	-250.5443725585938	748.0316772460939	-1210.608764648438	-304.2649536132813	671.9906616210939	-1206.18994140625	-239.6652374267579	513.6939697265626	-1175.3896484375	-237.9024505615235	505.7220764160157	-1058.825439453125	-249.9888610839844	327.3121643066407	-1103.781005859375	-303.5317993164063	291.3171386718751	-1164.732177734375	-268.1090393066407	280.2698364257813	-1136.877075195313	-293.6101379394532	210.3555603027344	-1097.362060546875	-372.0940551757813	129.1209869384766	-1135.2626953125	-341.1800231933594	138.7044525146485	-1050.114624023438	-443.6760253906251	112.8888168334961	-1095.325805664063	-241.2825927734376	61.85670471191408	-1049.841796875	-230.3712158203126	55.44338607788087	-1094.369140625	-272.2358398437501	40.51371002197266	-1151.941772460938	-436.8822631835939	739.1441040039064	-877.4050903320315	-399.7603149414064	684.6891479492189	-868.9270019531252	-367.1931457519532	685.2483520507814	-869.4843750000002	-427.6197509765626	605.3264770507814	-883.6837158203127	-446.440155029297	510.0361633300782	-893.4194335937502	-420.0264282226564	478.5027160644532	-1000.716979980469	-570.4189453125001	413.1457519531251	-931.9315185546877	-671.0507202148439	463.9996337890626	-952.7131347656252	-656.1630859375001	419.6018981933595	-947.3628540039065	-683.9872436523439	379.6141967773438	-982.2646484375002	-813.4937744140627	388.1964721679689	-1004.743041992188	-761.1386108398439	367.5009765625001	-1070.064819335938	-862.709411621094	413.7768554687501	-1073.082275390625	-750.2235107421876	229.826400756836	-1039.787231445313	-760.9774780273439	229.0098571777344	-987.9897460937502	-816.373474121094	253.7488708496094	-959.7661743164065	-4217.008789062501	853.1444091796877	-3944.812988281251	
1307	6.53	-82.1367645263672	1694.224609375	-1159.629028320313	-257.7297363281251	1615.43603515625	-1227.329345703125	-235.8585357666016	1630.56884765625	-1075.778564453125	-296.6335449218751	1499.81201171875	-1145.260375976563	-401.6884155273439	1213.015258789063	-1085.079467773438	-147.9807739257813	1411.7509765625	-1149.185424804688	-229.6116485595704	1483.443237304688	-1286.69140625	-151.9716186523438	1430.791015625	-1425.951904296875	-104.4745559692383	1434.037353515625	-1414.068115234375	-102.7574157714844	1414.088989257813	-1471.858154296875	-60.4386444091797	1400.919311523438	-1496.541748046875	-39.44424438476563	1320.4765625	-1467.263916015625	209.9269409179688	1379.759765625	-1437.136108398438	214.9131317138672	1380.358520507813	-1511.566528320313	277.0963134765626	1419.417236328125	-1434.049926757813	-193.7231750488282	1510.812133789063	-1024.5224609375	-69.17043304443361	1469.80908203125	-886.1248168945315	-40.89706802368165	1489.235961914063	-923.4370727539065	1.340458750724793	1476.1298828125	-884.1700439453127	47.49982833862305	1472.249755859375	-879.1914062500002	49.14598083496095	1385.599243164063	-896.1831665039065	289.2206726074219	1408.609497070313	-986.8149414062502	305.7656555175782	1433.383422851563	-916.7988891601565	372.5098266601563	1412.517578125	-1008.343200683594	-273.0661926269532	992.4321899414065	-1165.206909179688	-296.8690490722657	992.080749511719	-942.0107421875002	-441.7207336425782	1103.930786132813	-1071.567138671875	-459.9679260253907	1080.716430664063	-1099.7705078125	-468.1896972656251	1082.05712890625	-1045.52392578125	-350.8405151367188	793.9754028320315	-1231.349609375	-293.7005615234376	732.2270507812501	-1221.768188476563	-250.8932342529297	749.0333862304689	-1210.7548828125	-304.5298156738282	672.5167236328126	-1206.799926757813	-240.5856018066407	514.1956176757814	-1175.3349609375	-239.0588989257813	506.039031982422	-1058.770751953125	-250.8462066650391	327.9296875000001	-1103.630004882813	-303.8810729980469	291.0209960937501	-1164.55322265625	-268.7282409667969	280.4383544921876	-1136.748657226563	-294.0010681152344	210.6562652587891	-1097.368286132813	-372.1518859863282	129.1688537597657	-1135.248779296875	-341.1950683593751	138.7057800292969	-1050.121826171875	-443.7272033691407	112.9151916503907	-1095.323120117188	-241.2424011230469	61.81915664672853	-1049.861206054688	-230.4023742675782	55.37819290161134	-1094.350830078125	-272.1726684570313	40.50170898437501	-1151.903930664063	-435.878631591797	740.9303588867189	-877.2632446289065	-398.8653259277345	686.2811279296876	-868.7299804687502	-365.7177734375001	687.0681762695314	-869.2073974609377	-426.3748779296876	606.9729003906251	-883.447448730469	-445.3636779785157	511.6513061523439	-893.1177368164065	-418.0429687500001	479.5768127441407	-999.9046020507815	-569.1219482421876	414.4157104492189	-931.243835449219	-669.9403686523439	464.9690856933595	-952.3198242187502	-655.1018066406251	420.6085510253907	-946.7434692382815	-683.1229858398439	380.3620910644532	-981.3624267578127	-812.1099243164065	388.6922607421876	-1004.020629882813	-759.7095947265626	368.1548461914063	-1069.308837890625	-861.3876953125002	414.3858032226564	-1072.411743164063	-748.6086425781251	230.5831604003907	-1038.702270507813	-759.5927734375001	229.7975769042969	-987.1669921875002	-814.9022216796877	254.6145172119141	-958.9605102539065	-4216.900878906251	853.0984497070315	-3944.736572265626	
